<svg xmlns="http://www.w3.org/2000/svg" viewBox="-2895 12011 18 18">
  <defs>
    <style>
      .cls-1 {
        fill: none;
      }

      .cls-2, .cls-3 {
        stroke: none;
      }

      .cls-3 {
        fill: #ff6e00;
      }
    </style>
  </defs>
  <g id="Path_428" data-name="Path 428" class="cls-1" transform="translate(-2898 12008)">
    <path class="cls-2" d="M19,3H5A2,2,0,0,0,3,5V19a2,2,0,0,0,2,2H19a2,2,0,0,0,2-2V5A2,2,0,0,0,19,3Z"/>
    <path class="cls-3" d="M 19 20 C 19.55139923095703 20 20 19.55139923095703 20 19 L 20 5 C 20 4.448599815368652 19.55139923095703 4 19 4 L 5 4 C 4.448599815368652 4 4 4.448599815368652 4 5 L 4 19 C 4 19.55139923095703 4.448599815368652 20 5 20 L 19 20 M 19 21 L 5 21 C 3.890000104904175 21 3 20.10000038146973 3 19 L 3 5 C 3 3.900000095367432 3.890000104904175 3 5 3 L 19 3 C 20.11000061035156 3 21 3.900000095367432 21 5 L 21 19 C 21 20.10000038146973 20.11000061035156 21 19 21 Z"/>
  </g>
</svg>
