<svg xmlns="http://www.w3.org/2000/svg" width="23.34" height="22.33" viewBox="0 0 23.34 22.33">
  <path id="comment" d="M3,17.13a3.8,3.8,0,0,1-3-3.7V3.79A3.81,3.81,0,0,1,3.79,0H19.55a3.81,3.81,0,0,1,3.79,3.79v9.64a3.81,3.81,0,0,1-3.79,3.79H10.32L3,22.33ZM1.6,3.79v9.64a2.2,2.2,0,0,0,2.18,2.19h.8v3.64l5.24-3.64h9.73a2.19,2.19,0,0,0,2.19-2.19V3.79A2.2,2.2,0,0,0,19.55,1.6H3.79A2.2,2.2,0,0,0,1.6,3.79ZM4.8,12.1a.8.8,0,0,1,0-1.6h9a.8.8,0,1,1,0,1.6Zm0-3a.8.8,0,0,1,0-1.6h12a.8.8,0,1,1,0,1.6Zm0-3a.8.8,0,1,1,0-1.6h14a.8.8,0,0,1,0,1.6Z" fill="#0277a3"/>
</svg>
