<svg xmlns="http://www.w3.org/2000/svg" width="21.55" height="23" viewBox="0 0 21.55 23">
  <path id="like" d="M10.1,23V19a8.19,8.19,0,0,0,.67-.53,8.189,8.189,0,0,0,.67.53v4ZM0,17.54a7.64,7.64,0,0,1,4.61-1.76A13.7,13.7,0,0,0,9.25,18,7.64,7.64,0,0,1,0,17.54Zm12.3.4a13.77,13.77,0,0,0,4.64-2.16,7.64,7.64,0,0,1,4.61,1.76,7.64,7.64,0,0,1-9.25.4Zm1.89-6.55a13.12,13.12,0,0,1,7.35-4.65,13.47,13.47,0,0,1-9.28,9.82,15.69,15.69,0,0,0,1.93-5.17ZM0,6.74a13.12,13.12,0,0,1,7.35,4.65,15.47,15.47,0,0,0,1.93,5.17A13.47,13.47,0,0,1,0,6.74ZM10.77,0a15.37,15.37,0,0,1,0,16.4,15.41,15.41,0,0,1,0-16.4Z" fill="#0277a3"/>
</svg>
