<svg xmlns="http://www.w3.org/2000/svg" width="16.051" height="16.051" viewBox="0 0 16.051 16.051">
  <path id="logout" d="M4.936,15.988.911,14.646A1.347,1.347,0,0,1,0,13.376V1.338A1.339,1.339,0,0,1,1.338,0c.033,0,.064.012.1.014A.557.557,0,0,1,1.5,0h7.19A2.009,2.009,0,0,1,10.7,2.007V4.013a.669.669,0,1,1-1.338,0V2.007a.669.669,0,0,0-.668-.669H5.58l.2.066a1.348,1.348,0,0,1,.911,1.272v10.03h2a.669.669,0,0,0,.668-.668V9.363a.669.669,0,0,1,1.338,0v2.675a2.008,2.008,0,0,1-2.006,2.006H6.688v.669A1.339,1.339,0,0,1,5.35,16.051a1.382,1.382,0,0,1-.414-.063Zm7.515-6.007a.67.67,0,0,1-.413-.618V7.356H9.363a.668.668,0,1,1,0-1.337h2.675V4.013A.669.669,0,0,1,13.18,3.54l2.675,2.675a.669.669,0,0,1,0,.946L13.18,9.836a.668.668,0,0,1-.729.145Z" fill="#0277a3"/>
</svg>
