<svg xmlns="http://www.w3.org/2000/svg" viewBox="0 0 24 24"><defs><style>.cls-1{fill:#010101;}.cls-2{fill:none;}</style></defs><title>PROFILE</title><g id="Layer_2" data-name="Layer 2"><g id="Layer_1-2" data-name="Layer 1"><path id="user-7" class="cls-1" d="M12,3.72a4.55,4.55,0,0,1,4.55,4.55c0,1.21-.39,2.65-2.68,4.63a11,11,0,0,1,6.19,7.38H3.92a10.68,10.68,0,0,1,6.23-7.36c-1.33-1.07-2.71-2.75-2.71-4.65A4.56,4.56,0,0,1,12,3.72Zm0-1.66a6.2,6.2,0,0,0-4.48,10.5,11.58,11.58,0,0,0-5.46,9.38H21.94a11.82,11.82,0,0,0-5.46-9.37A6.21,6.21,0,0,0,12,2.06Z"/><rect class="cls-2" width="24" height="24"/></g></g></svg>