<svg xmlns="http://www.w3.org/2000/svg" width="16" height="20" viewBox="0 0 16 20">
  <path id="nominate" d="M10.867,20a.25.25,0,0,1-.23-.147L8.52,15.271a1.6,1.6,0,0,1,.641.352,2.583,2.583,0,0,0,2.877.421,2.613,2.613,0,0,0,.885-.672l1.331,2.881a.239.239,0,0,1-.039.266.252.252,0,0,1-.263.078l-.969-.264a1.266,1.266,0,0,0-.332-.045,1.238,1.238,0,0,0-1.112.683l-.438.886a.248.248,0,0,1-.229.142ZM4.9,19.858l-.438-.886a1.238,1.238,0,0,0-1.112-.683,1.265,1.265,0,0,0-.332.045l-.969.264a.252.252,0,0,1-.263-.078.24.24,0,0,1-.039-.266l1.331-2.881a2.615,2.615,0,0,0,.885.672,2.583,2.583,0,0,0,2.877-.421,1.6,1.6,0,0,1,.641-.352L5.362,19.853a.249.249,0,0,1-.23.147h0A.248.248,0,0,1,4.9,19.858Zm4.857-4.939a2.642,2.642,0,0,0-3.51,0,1.608,1.608,0,0,1-1.787.262,1.542,1.542,0,0,1-.9-1.53,2.556,2.556,0,0,0-2.189-2.685,1.565,1.565,0,0,1-1.323-1.2A1.529,1.529,0,0,1,.7,8.117,2.508,2.508,0,0,0,1.48,4.769a1.519,1.519,0,0,1,.137-1.762,1.6,1.6,0,0,1,1.726-.523A2.615,2.615,0,0,0,6.506.994a1.62,1.62,0,0,1,2.988,0,2.615,2.615,0,0,0,3.163,1.49,1.6,1.6,0,0,1,1.726.523,1.519,1.519,0,0,1,.137,1.762A2.509,2.509,0,0,0,15.3,8.117a1.529,1.529,0,0,1,.658,1.646,1.565,1.565,0,0,1-1.323,1.2,2.556,2.556,0,0,0-2.189,2.685,1.542,1.542,0,0,1-.9,1.53,1.693,1.693,0,0,1-.714.16A1.574,1.574,0,0,1,9.755,14.919ZM2.744,7.981A5.206,5.206,0,0,0,8,13.122a5.206,5.206,0,0,0,5.256-5.141A5.205,5.205,0,0,0,8,2.839,5.206,5.206,0,0,0,2.744,7.981Zm.98,0A4.235,4.235,0,0,1,8,3.8a4.235,4.235,0,0,1,4.276,4.183A4.235,4.235,0,0,1,8,12.163,4.235,4.235,0,0,1,3.724,7.981Zm2.439-.392a.473.473,0,0,0-.119.668l.8,1.109a.492.492,0,0,0,.321.2.5.5,0,0,0,.369-.086l2.661-1.9a.473.473,0,0,0,.107-.67.5.5,0,0,0-.685-.1L7.355,8.414l-.509-.709a.5.5,0,0,0-.683-.117Z" transform="translate(0)" fill="#fff"/>
</svg>
