<svg xmlns="http://www.w3.org/2000/svg" width="16.346" height="16.352" viewBox="0 0 16.346 16.352">
  <path id="settings" d="M7.148,16.352a.423.423,0,0,1-.4-.332l-.371-1.979a6.1,6.1,0,0,1-1.116-.465L3.625,14.7a.423.423,0,0,1-.518-.049l-1.4-1.4a.423.423,0,0,1-.048-.518L2.779,11.1A6.088,6.088,0,0,1,2.3,9.937L.332,9.568A.425.425,0,0,1,0,9.167V7.18a.424.424,0,0,1,.332-.4L2.3,6.41a6.105,6.105,0,0,1,.464-1.126L1.632,3.628A.424.424,0,0,1,1.68,3.11L3.086,1.7A.423.423,0,0,1,3.6,1.656L5.249,2.782a6.076,6.076,0,0,1,1.127-.471L6.747.332A.424.424,0,0,1,7.148,0H9.135a.423.423,0,0,1,.4.332L9.9,2.292a6.081,6.081,0,0,1,1.175.48l1.667-1.14a.423.423,0,0,1,.517.048l1.4,1.406a.423.423,0,0,1,.049.518L13.575,5.27a6.059,6.059,0,0,1,.471,1.14l1.969.369a.422.422,0,0,1,.331.4V9.168a.424.424,0,0,1-.331.4l-1.968.369a6.1,6.1,0,0,1-.481,1.163l1.128,1.648a.423.423,0,0,1-.049.518l-1.4,1.4a.422.422,0,0,1-.518.049L11.07,13.581a6.184,6.184,0,0,1-1.17.479l-.364,1.96a.423.423,0,0,1-.4.332ZM4.765,8.175a3.41,3.41,0,1,0,3.41-3.41,3.41,3.41,0,0,0-3.41,3.41Zm2,0a1.409,1.409,0,1,1,1.409,1.41,1.409,1.409,0,0,1-1.409-1.41Z" fill="#0277a3"/>
</svg>
