<svg xmlns="http://www.w3.org/2000/svg" width="20" height="20" viewBox="0 0 20 20">
  <path id="share" d="M2.86,20A2.86,2.86,0,0,1,0,17.14V5.36A2.86,2.86,0,0,1,2.85,2.51H8.36a.85.85,0,1,1,0,1.69H2.86A1.17,1.17,0,0,0,1.69,5.37V17.15a1.18,1.18,0,0,0,1.17,1.17H14.64a1.19,1.19,0,0,0,1.17-1.17V11.64a.84.84,0,1,1,1.68,0h0v5.51A2.86,2.86,0,0,1,14.64,20ZM8,12.18a.84.84,0,0,1,0-1.19H8l9.21-9.3h-3a.85.85,0,0,1,0-1.69h5A.85.85,0,0,1,20,.84v5a.85.85,0,0,1-1.69,0v-3L9.12,12.17a.83.83,0,0,1-1.17,0Z" fill="#0277a3"/>
</svg>
