<svg xmlns="http://www.w3.org/2000/svg" width="18" height="17.389" viewBox="0 0 18 17.389">
  <path id="icon_whats_on_your_mind_selected" d="M9,.435c-4.97,0-9,3.557-9,7.946a7.5,7.5,0,0,0,2.708,5.677C2.342,16.172-.02,17.029.143,17.612c1.995.825,5.991-.992,6.967-1.463A10.182,10.182,0,0,0,9,16.328c4.97,0,9-3.557,9-7.947S13.97.435,9,.435ZM8.362,8.712c0,2.161-.956,3.373-2.84,3.6H5.511a.086.086,0,0,1-.058-.022.087.087,0,0,1-.03-.066v-1.1a.087.087,0,0,1,.045-.077A2.421,2.421,0,0,0,6.778,8.8H5.511a.088.088,0,0,1-.088-.088V5.95a.088.088,0,0,1,.088-.088H8.274a.088.088,0,0,1,.088.088V8.712Zm4.892,0c0,2.128-.846,3.205-2.833,3.6H10.4a.091.091,0,0,1-.056-.02.087.087,0,0,1-.032-.068v-1.1a.087.087,0,0,1,.045-.077A2.421,2.421,0,0,0,11.672,8.8H10.4a.088.088,0,0,1-.088-.088V5.95a.088.088,0,0,1,.088-.088h2.762a.087.087,0,0,1,.088.088Z" transform="translate(0 -0.435)" fill="#fff"/>
</svg>
