<svg xmlns="http://www.w3.org/2000/svg" width="18" height="17" viewBox="0 0 16.559 17.255">
  <path id="icon_ideation" d="M20.046,15.078v.5a.8.8,0,0,1-.678.792l-.124.458a.57.57,0,0,1-.55.422H17.462a.57.57,0,0,1-.55-.422l-.121-.458a.8.8,0,0,1-.682-.8v-.5a.485.485,0,0,1,.486-.486H19.56A.49.49,0,0,1,20.046,15.078Zm2.283-6.8a4.229,4.229,0,0,1-1.193,2.95,3.9,3.9,0,0,0-1.044,2.116.7.7,0,0,1-.7.593H16.759a.7.7,0,0,1-.692-.589,3.941,3.941,0,0,0-1.051-2.123,4.25,4.25,0,1,1,7.314-2.947ZM18.559,5.709a.48.48,0,0,0-.479-.479A3.071,3.071,0,0,0,15.012,8.3a.479.479,0,0,0,.959,0A2.111,2.111,0,0,1,18.08,6.188.477.477,0,0,0,18.559,5.709ZM18.08,2.638a.48.48,0,0,0,.479-.479V.479a.479.479,0,0,0-.959,0V2.159A.48.48,0,0,0,18.08,2.638ZM12.438,8.28a.48.48,0,0,0-.479-.479H10.279a.479.479,0,1,0,0,.959h1.679A.477.477,0,0,0,12.438,8.28ZM25.88,7.8H24.2a.479.479,0,1,0,0,.959H25.88a.479.479,0,1,0,0-.959ZM13.414,12.27,12.225,13.46a.478.478,0,0,0,.675.678l1.189-1.189a.478.478,0,1,0-.675-.678Zm8.993-7.839a.479.479,0,0,0,.337-.138L23.934,3.1a.48.48,0,1,0-.678-.678L22.067,3.614a.478.478,0,0,0,0,.678A.487.487,0,0,0,22.407,4.431Zm-8.993-.142a.478.478,0,0,0,.675-.678L12.9,2.421a.48.48,0,0,0-.678.678Zm9.33,7.981a.48.48,0,1,0-.678.678l1.189,1.189a.478.478,0,0,0,.675-.678Z" transform="translate(-9.8)"/>
</svg>
