<svg xmlns="http://www.w3.org/2000/svg" width="49.917" height="43.679" viewBox="0 0 49.917 43.679"><defs><style>.a{fill:#707070;}</style></defs><g transform="translate(0 -30.522)"><path class="a" d="M193.814,200.261a6.24,6.24,0,1,1-8.824,0,6.24,6.24,0,0,1,8.824,0" transform="translate(-164.444 -150.752)"/><path class="a" d="M43.677,36.762H39.366l-3.121-6.24H13.669l-3.118,6.243-4.305.008A6.251,6.251,0,0,0,.017,43.009L0,67.959A6.247,6.247,0,0,0,6.24,74.2H43.677a6.246,6.246,0,0,0,6.24-6.24V43A6.246,6.246,0,0,0,43.677,36.762ZM24.958,66.4a12.48,12.48,0,1,1,12.48-12.48A12.494,12.494,0,0,1,24.958,66.4Z"/></g></svg>